<?xml version="1.0" encoding="UTF-8"?>
<svg id="Layer_1" data-name="Layer 1" xmlns="http://www.w3.org/2000/svg" viewBox="0 0 1920 296.79">
  <defs>
    <style>
      .cls-1 {
        fill: #1a1919;
      }

      .cls-2 {
        fill: #ac75ff;
      }
    </style>
  </defs>
  <path class="cls-2" d="M244.21,122.94v50.88l-122.36,16.97L0,173.82v-50.88l121.85-16.97,122.36,16.97ZM0,241.67v-50.88l71.23,38.16,172.98-38.16v50.88l-172.98,55.13L0,241.67ZM244.21,55.13v50.88l-71.23-38.16L0,106v-50.88L172.98,0l71.23,55.13Z"/>
  <path class="cls-1" d="M505.06,182.17c-7.3,22.13-25.64,34.83-50.37,34.83-32.28,0-55.74-28.21-55.74-67.06s23.43-65.76,55.74-65.76c24.7,0,43.88,13.33,50.09,34.8l.13.46h30.81l-.1-.71c-5.9-37.27-38.44-62.3-80.92-62.3-23.46,0-45.33,8.85-61.59,24.9-17.53,17.32-26.79,41.03-26.79,68.61,0,62.25,44.47,94.81,88.37,94.81s73.95-23.86,81.17-62.27l.13-.74h-30.81l-.15.43h.03ZM617.34,104.02c-39.89,0-68.81,29.15-68.81,69.35s28.31,71.13,68.81,71.13,68.81-29.92,68.81-71.13c0-20.27-6.9-37.73-19.92-50.44-12.49-12.18-29.86-18.9-48.92-18.9h.03ZM656.37,173.36c0,27.17-15.67,45.43-39,45.43s-39-18.7-39-45.43,16.05-43.63,39-43.63,39,17.93,39,43.63ZM774.86,104.02c-16.76,0-30.63,6.44-39.25,18.21v-15.11h-28.8v134.54h29.05v-73.98c0-28.21,16.31-38.23,30.25-38.23,17.55,0,28.47,12.19,28.47,31.8v80.41h29.05v-83.74c0-33.76-18.21-53.9-48.74-53.9h-.02ZM989.92,104.02c-32.36,0-66.78,24.29-66.78,69.35,0,21.14,7,39.2,20.25,52.2,12.44,12.21,29.58,18.93,48.31,18.93,23.56,0,54.08-10.84,62.63-41.39l.23-.79h-29l-.18.33c-7.28,13.97-21.9,16.92-32.89,16.92-20.63,0-36.76-14.8-39.43-36.07h102.59v-7.05c0-22.56-6.84-41.34-19.82-54.29-11.7-11.7-28.01-18.14-45.92-18.14ZM989.41,128.69c19.77,0,34.09,12.59,35.87,31.44h-72.47c2.47-18.82,17.1-31.44,36.61-31.44ZM1144.56,104.02c-16.76,0-30.63,6.44-39.25,18.21v-15.11h-28.8v134.54h29.05v-73.98c0-28.21,16.31-38.23,30.25-38.23,17.55,0,28.47,12.19,28.47,31.8v80.41h29.05v-83.74c0-33.76-18.21-53.9-48.74-53.9h-.03ZM1363.1,161.15l-13.13-2.32c-17.1-3.08-23.15-7.02-23.15-15.08,0-9.34,10-15.85,24.35-15.85,15.26,0,25.36,6.33,28.47,17.81l.13.46h27.7l-.08-.71c-3.15-24.95-25.44-41.72-55.43-41.72s-52.61,17.4-52.61,42.3c0,19.87,14.5,32.99,41.95,37.93l13.13,2.31c17.48,3.13,28.31,7.2,28.31,17.91,0,8.14-8.24,16.36-26.66,16.36s-29.53-7.96-31.8-21.85l-.08-.53h-27.98l.08.69c2.85,28.29,25.57,45.87,59.3,45.87,27.42,0,55.18-14.88,55.18-43.35,0-21.6-15.14-34.39-47.62-40.24l-.05.02ZM1628.4,214.27l.51-60.75c.1-15.44-4-27.47-12.18-35.72-9.08-9.16-23.3-13.79-42.24-13.79-31.74,0-55.48,18.42-59.04,45.84l-.1.71h28.24l.1-.51c3.02-14.65,13.33-22.41,29.77-22.41,18.36,0,26.9,7.99,26.9,25.11v.76l-29.58,4.81c-35.84,5.8-59.71,15.64-59.71,44.87s25.42,41.29,49.02,41.29c18.89,0,33.07-6.41,42.15-19.03l.48,16.2h27.02l-.06-.66c-1.06-16.81-1.29-22.84-1.29-26.71v-.02ZM1600.39,176.62v8.8c0,21.34-13.78,35.16-35.16,35.16-15.64,0-25.36-7.15-25.36-18.67,0-15.95,19.39-20.17,60.52-25.29ZM1748.25,193.51c-4.26,15.59-16.95,25.26-33.12,25.26-21.55,0-37.22-19.1-37.22-45.43s15.29-43.63,37.22-43.63c16.18,0,29.48,10.05,33.09,25.01l.13.48h28.72l-.09-.69c-2.98-28.8-29.45-50.5-61.61-50.5-38.36,0-67.28,29.81-67.28,69.35s28.08,71.13,66.77,71.13c27.4,0,57.51-17.43,62.12-50.73l.1-.71h-28.72l-.12.46ZM1825.57,55.13h-28.76v186.54h28.76V55.13ZM1920,241.64h-33.87l-.22-.28-60.35-78.05,55.74-56.22h37.83l-59.4,58.31,60.26,76.24ZM1468.27,130.75v70.92c0,13.99,4.49,16.33,14.52,16.33h17.37v23.35h-.61c-9.8.53-13.63.53-23.95.53-12.09,0-20.41-2.24-26.05-7.02-6.79-5.72-10.07-15.34-10.07-29.36v-74.76h-23.18v-23.63h23.18v-22.54l28.8-9.39v31.93h31.92v23.63h-31.92ZM1255.75,130.75v70.92c0,13.99,4.5,16.33,14.52,16.33h17.37v23.35h-.61c-9.79.53-13.63.53-23.96.53-12.08,0-20.4-2.24-26.05-7.02-6.79-5.72-10.07-15.34-10.07-29.36v-74.76h-23.18v-23.63h23.18v-22.54l28.8-9.39v31.93h31.92v23.63h-31.92ZM886.05,130.75v70.92c0,13.99,4.5,16.33,14.53,16.33h17.37v23.35h-.61c-9.79.53-13.63.53-23.96.53-12.08,0-20.4-2.24-26.05-7.02-6.79-5.72-10.07-15.34-10.07-29.36v-74.76h-23.18v-23.63h23.18v-22.54l28.8-9.39v31.93h31.93v23.63h-31.93Z"/>
</svg>